<?xml version="1.0" encoding="utf-8"?>
<svg viewBox="0 0 24 24" fill="currentColor" xmlns="http://www.w3.org/2000/svg">
  <path d="M 19.124 2.586 C 19.017 2.324 18.807 2.124 18.55 2.035 L 18.547 2.035 L 18.545 2.034 L 18.541 2.033 L 18.535 2.03 L 18.518 2.025 C 18.506 2.021 18.492 2.018 18.478 2.014 C 18.452 2.006 18.42 1.999 18.385 1.992 C 18.313 1.978 18.227 1.967 18.125 1.962 C 17.92 1.952 17.657 1.968 17.335 2.04 C 16.799 2.16 16.102 2.434 15.226 2.995 C 15.169 3.032 15.11 3.07 15.053 3.109 C 14.994 3.095 14.935 3.081 14.876 3.067 C 13.28 2.7 11.628 2.7 10.032 3.067 C 9.973 3.081 9.914 3.095 9.855 3.109 C 9.797 3.07 9.739 3.032 9.682 2.995 C 8.806 2.433 8.107 2.159 7.569 2.039 C 7.246 1.968 6.982 1.952 6.778 1.962 C 6.676 1.967 6.589 1.978 6.518 1.992 C 6.483 1.999 6.451 2.006 6.424 2.013 C 6.41 2.017 6.397 2.021 6.386 2.024 L 6.369 2.03 L 6.361 2.032 L 6.357 2.033 L 6.355 2.034 L 6.354 2.035 C 6.094 2.123 5.883 2.325 5.774 2.59 C 5.371 3.574 5.264 4.66 5.458 5.702 C 5.468 5.753 5.478 5.803 5.489 5.854 C 5.447 5.913 5.407 5.973 5.367 6.033 C 4.762 6.97 4.44 8.087 4.455 9.234 C 4.456 11.691 5.174 13.373 6.387 14.456 C 7.074 15.068 7.871 15.443 8.673 15.68 C 8.764 15.707 8.856 15.732 8.948 15.756 C 8.934 15.802 8.922 15.849 8.91 15.896 C 8.862 16.095 8.83 16.298 8.815 16.505 C 8.813 16.524 8.813 16.543 8.812 16.561 L 8.778 18.38 L 8.778 18.4 C 8.778 18.405 8.778 18.411 8.778 18.417 C 8.716 18.432 8.654 18.443 8.591 18.451 C 8.396 18.473 8.199 18.457 8.01 18.402 C 7.822 18.348 7.645 18.257 7.492 18.134 C 7.338 18.011 7.21 17.858 7.114 17.685 L 7.105 17.668 C 6.842 17.213 6.48 16.823 6.045 16.529 C 5.611 16.234 5.114 16.043 4.594 15.969 C 4.048 15.891 3.542 16.272 3.464 16.819 C 3.387 17.366 3.767 17.872 4.314 17.949 C 4.532 17.98 4.741 18.061 4.924 18.185 C 5.105 18.307 5.257 18.469 5.367 18.659 C 5.589 19.058 5.886 19.41 6.242 19.696 C 6.602 19.983 7.014 20.197 7.457 20.324 C 7.887 20.448 8.338 20.488 8.783 20.442 C 8.783 20.681 8.784 20.866 8.784 20.959 C 8.784 21.511 9.208 21.959 9.732 21.959 L 15.209 21.959 C 15.733 21.959 16.157 21.511 16.157 20.959 L 16.157 17.169 C 16.182 16.739 16.139 16.309 16.027 15.896 C 16.012 15.84 15.995 15.783 15.977 15.727 C 16.038 15.712 16.097 15.696 16.157 15.68 C 16.981 15.453 17.805 15.081 18.512 14.457 C 19.732 13.381 20.451 11.697 20.454 9.234 C 20.468 8.087 20.147 6.97 19.541 6.033 C 19.502 5.973 19.46 5.913 19.419 5.853 C 19.429 5.803 19.44 5.753 19.45 5.702 C 19.643 4.658 19.533 3.57 19.124 2.586 Z" transform="matrix(1, 0, 0, 1, 3.552713678800501e-15, 0)"/>
</svg>